<?xml version="1.0" encoding="UTF-8"?>
<svg id="Layer_2" data-name="Layer 2" xmlns="http://www.w3.org/2000/svg" viewBox="0 0 48 48">
  <defs>
    <style>
      .cls-1 {
        fill: #fff;
      }

      .cls-2 {
        fill: #ffd166;
      }

      .cls-3 {
        fill: #e7476f;
      }
    </style>
  </defs>
  <g id="Layer_1-2" data-name="Layer 1">
    <g>
      <circle class="cls-2" cx="24" cy="24" r="24"/>
      <circle class="cls-3" cx="23.5" cy="24.26" r="12"/>
      <path class="cls-1" d="m27.52,22.15v-2.01c0-1.8-1.46-3.26-3.26-3.26h-1.47c-1.8,0-3.26,1.46-3.26,3.26v2.01c-.66.08-1.17.64-1.17,1.31v6.04c0,.73.59,1.32,1.32,1.32h7.68c.73,0,1.32-.59,1.32-1.32v-6.04c0-.68-.51-1.24-1.17-1.31Zm-3.35,4.55v1.45c0,.25-.2.46-.46.46h-.14c-.25,0-.46-.2-.46-.46v-1.43c-.5-.2-.86-.69-.86-1.27,0-.75.61-1.36,1.36-1.36s1.36.61,1.36,1.36c0,.56-.34,1.04-.82,1.25Zm2.26-4.56h-5.85v-1.79c0-1.29,1.05-2.34,2.34-2.34h1.17c1.29,0,2.34,1.05,2.34,2.34v1.79Z"/>
    </g>
  </g>
</svg>